<svg t="1705308185209" class="icon" viewBox="0 0 1664 1024" version="1.1" xmlns="http://www.w3.org/2000/svg" p-id="24360" width="200" height="200"><path d="M147.712 424.789333h141.354667v155.136H147.712zM333.056 424.789333h141.354667v155.136H333.056zM518.4 424.789333h141.354667v155.136H518.4zM703.701333 424.789333h141.354667v155.136h-141.354667zM333.056 223.573333h141.354667v155.050667H333.056zM518.4 223.573333h141.354667v155.050667H518.4zM703.701333 223.573333h141.354667v155.050667h-141.354667zM703.701333 23.210667h141.354667v155.093333h-141.354667zM889.045333 424.789333h141.354667v155.136h-141.354667z" fill="#BECAF4" p-id="24361"></path><path d="M1547.349333 286.72c-64.042667 3.114667-133.802667 19.968-133.802666 19.968s-28.458667-59.818667-68.565334-107.776c-31.018667-37.12-104.533333-83.456-104.533333-83.456s-12.714667 15.488-19.669333 34.602667c-40.533333 111.232-11.306667 262.954667 76.928 329.941333-28.245333 24.746667-70.144 34.133333-70.144 34.133333H26.666667c-0.170667 4.266667-0.256 8.533333-0.256 12.8 0 252.117333 61.098667 498.346667 687.786666 456.490667 352.853333-23.594667 550.613333-255.701333 663.893334-469.418667 111.488 20.48 226.56-45.994667 268.501333-161.365333 10.197333-27.989333 15.445333-52.437333 15.445333-52.437333s-79.36-15.189333-114.688-13.482667z" fill="#244DD5" p-id="24362"></path></svg>